The Crazies

source:

The.Crazies.2010.BDRip.XviD-SAiNTS
 
http://www.imdb.com/title/tt0455407/

About the inhabitants of a small Iowa town suddenly plagued by insanity and then death after a mysterious toxin contaminates their water 

supply

ID                               : 1
Format                           : AVC
Format/Info                      : Advanced Video Codec
Format profile                   : Baseline@L2.0
Format settings, CABAC           : No
Format settings, ReFrames        : 3 frames
Codec ID                         : avc1
Codec ID/Info                    : Advanced Video Coding
Duration                         : 1h 40mn
Bit rate mode                    : Variable
Bit rate                         : 400 Kbps
Width                            : 480 pixels
Height                           : 208 pixels
Display aspect ratio             : 2.35:1
Frame rate mode                  : Variable
Frame rate                       : 23.958 fps
Minimum frame rate               : 11.987 fps
Maximum frame rate               : 23.981 fps
Color space                      : YUV
Chroma subsampling               : 4:2:0
Bit depth                        : 8 bits
Scan type                        : Progressive
Bits/(Pixel*Frame)               : 0.167
Stream size                      : 288 MiB (75%)
Writing library                  : x264 core 79

ID                               : 2
Format                           : AAC
Format/Info                      : Advanced Audio Codec
Format version                   : Version 4
Format profile                   : LC
Format settings, SBR             : No
Codec ID                         : 40
Duration                         : 1h 40mn
Bit rate mode                    : Variable
Bit rate                         : 128 Kbps
Maximum bit rate                 : 214 Kbps
Channel(s)                       : 2 channels
Channel positions                : Front: L R
Sampling rate                    : 48.0 KHz
Stream size                      : 92.2 MiB (24%)
 
http://img10.imageshack.us/img10/2672/vlcsnap00001g.png 
http://img691.imageshack.us/img691/1331/vlcsnap00002fb.png 
http://img163.imageshack.us/img163/8594/vlcsnap00003xk.png 
http://img194.imageshack.us/img194/2733/vlcsnap00004b.png 
http://img99.imageshack.us/img99/4237/vlcsnap00005g.png 
http://img823.imageshack.us/img823/6751/vlcsnap00006x.png 
http://img340.imageshack.us/img340/8072/vlcsnap00007h.png 
http://img248.imageshack.us/img248/2072/vlcsnap00008b.png


PLEASE LET THE TORRENT SEED AND SHARE IT WITH ALL YOU KNOW!

Let me know what I can do to be your trusted source of Handheld videos.

-OOO (on.off.on)



